<svg xmlns="http://www.w3.org/2000/svg" viewBox="0 0 128 128" role="img" aria-label="SGS style Type 2 connector">
  <rect width="128" height="128" fill="none"/>
  <path d="M44 98 L28 117" fill="none" stroke="#151717" stroke-width="18" stroke-linecap="round"/>
  <path d="M45 98 L29 117" fill="none" stroke="#4a4d4d" stroke-width="7" stroke-linecap="round"/>
  <path d="M40 22 Q32 27 32 39 V78 Q32 94 48 98 H80 Q96 94 96 78 V39 Q96 27 88 22 Z" fill="#3d4040" stroke="#ffd600" stroke-width="4"/>
  <rect x="39" y="30" width="50" height="55" rx="18" fill="#0d0f0f"/>
  <g fill="#0d0f0f" stroke="#e0e2e2" stroke-width="4">
    <circle cx="53" cy="43" r="5"/><circle cx="75" cy="43" r="5"/>
    <circle cx="48" cy="59" r="8"/><circle cx="64" cy="59" r="8"/><circle cx="80" cy="59" r="8"/>
    <circle cx="55" cy="76" r="8"/><circle cx="73" cy="76" r="8"/>
  </g>
  <rect x="59" y="20" width="10" height="5" fill="#ffd600"/>
</svg>
